<svg width="20" height="20" viewBox="0 0 20 20" fill="none" xmlns="http://www.w3.org/2000/svg">
<path fill-rule="evenodd" clip-rule="evenodd" d="M3.73331 1.33334H3.66665C3.36131 1.33334 3.09865 1.33334 2.86665 1.38801C2.50749 1.47383 2.17911 1.65741 1.91789 1.9184C1.65666 2.17939 1.47279 2.5076 1.38665 2.86668C1.33331 3.09868 1.33331 3.36001 1.33331 3.66668V7.00001C1.33331 7.30534 1.33331 7.56801 1.38798 7.80001C1.4738 8.15916 1.65737 8.48754 1.91837 8.74877C2.17936 9.01 2.50757 9.19387 2.86665 9.28001C3.09865 9.33334 3.35998 9.33334 3.66665 9.33334H6.99998C7.30531 9.33334 7.56798 9.33334 7.79998 9.27868C8.15913 9.19286 8.48751 9.00928 8.74874 8.74829C9.00996 8.4873 9.19384 8.15908 9.27998 7.80001C9.33331 7.56801 9.33331 7.30668 9.33331 7.00001V3.66668C9.33331 3.36134 9.33331 3.09868 9.27865 2.86668C9.19283 2.50753 9.00925 2.17914 8.74826 1.91792C8.48727 1.65669 8.15905 1.47282 7.79998 1.38668C7.56798 1.33334 7.30665 1.33334 6.99998 1.33334H3.73331ZM3.17731 2.68534C3.23465 2.67201 3.32398 2.66668 3.73331 2.66668H6.93331C7.34398 2.66668 7.43198 2.67068 7.48931 2.68534C7.60909 2.71399 7.71859 2.77524 7.80567 2.86232C7.89275 2.9494 7.954 3.0589 7.98265 3.17868C7.99598 3.23468 7.99998 3.32268 7.99998 3.73334V6.93334C7.99998 7.34401 7.99598 7.43201 7.98131 7.48934C7.95267 7.60912 7.89141 7.71862 7.80433 7.8057C7.71725 7.89278 7.60775 7.95403 7.48798 7.98268C7.43331 7.99468 7.34531 8.00001 6.93331 8.00001H3.73331C3.32265 8.00001 3.23465 7.99601 3.17731 7.98134C3.05754 7.9527 2.94804 7.89144 2.86096 7.80436C2.77388 7.71728 2.71262 7.60778 2.68398 7.48801C2.67198 7.43334 2.66665 7.34534 2.66665 6.93334V3.73334C2.66665 3.32268 2.67065 3.23468 2.68531 3.17734C2.71395 3.05757 2.77521 2.94807 2.86229 2.86099C2.94937 2.77391 3.05887 2.71265 3.17865 2.68401L3.17731 2.68534ZM13.0666 1.33334H13C12.6946 1.33334 12.432 1.33334 12.2 1.38801C11.8408 1.47383 11.5124 1.65741 11.2512 1.9184C10.99 2.17939 10.8061 2.5076 10.72 2.86668C10.6666 3.09868 10.6666 3.36001 10.6666 3.66668V7.00001C10.6666 7.30534 10.6666 7.56801 10.7213 7.80001C10.8071 8.15916 10.9907 8.48754 11.2517 8.74877C11.5127 9.01 11.8409 9.19387 12.2 9.28001C12.432 9.33334 12.6933 9.33334 13 9.33334H16.3333C16.6386 9.33334 16.9013 9.33334 17.1333 9.27868C17.4925 9.19286 17.8208 9.00928 18.0821 8.74829C18.3433 8.4873 18.5272 8.15908 18.6133 7.80001C18.6666 7.56801 18.6666 7.30668 18.6666 7.00001V3.66668C18.6666 3.36134 18.6666 3.09868 18.612 2.86668C18.5262 2.50753 18.3426 2.17914 18.0816 1.91792C17.8206 1.65669 17.4924 1.47282 17.1333 1.38668C16.9013 1.33334 16.64 1.33334 16.3333 1.33334H13.0666ZM12.5106 2.68534C12.568 2.67201 12.6573 2.66668 13.0666 2.66668H16.2666C16.6773 2.66668 16.7653 2.67068 16.8226 2.68534C16.9424 2.71399 17.0519 2.77524 17.139 2.86232C17.2261 2.9494 17.2873 3.0589 17.316 3.17868C17.3293 3.23468 17.3333 3.32268 17.3333 3.73334V6.93334C17.3333 7.34401 17.328 7.43201 17.3146 7.48934C17.286 7.60912 17.2247 7.71862 17.1377 7.8057C17.0506 7.89278 16.9411 7.95403 16.8213 7.98268C16.7653 7.99601 16.6773 8.00001 16.2666 8.00001H13.0666C12.656 8.00001 12.568 7.99601 12.5106 7.98134C12.3909 7.9527 12.2814 7.89144 12.1943 7.80436C12.1072 7.71728 12.046 7.60778 12.0173 7.48801C12.0053 7.43334 12 7.34534 12 6.93334V3.73334C12 3.32268 12.004 3.23468 12.0186 3.17734C12.0473 3.05757 12.1085 2.94807 12.1956 2.86099C12.2827 2.77391 12.3922 2.71265 12.512 2.68401L12.5106 2.68534ZM3.66665 10.6667H6.99998C7.30531 10.6667 7.56798 10.6667 7.79998 10.7213C8.15913 10.8072 8.48751 10.9907 8.74874 11.2517C9.00996 11.5127 9.19384 11.8409 9.27998 12.2C9.33331 12.432 9.33331 12.6933 9.33331 13V16.3333C9.33331 16.6387 9.33331 16.9013 9.27865 17.1333C9.19283 17.4925 9.00925 17.8209 8.74826 18.0821C8.48727 18.3433 8.15905 18.5272 7.79998 18.6133C7.56798 18.6667 7.30665 18.6667 6.99998 18.6667H3.66665C3.36131 18.6667 3.09865 18.6667 2.86665 18.612C2.50749 18.5262 2.17911 18.3426 1.91789 18.0816C1.65666 17.8206 1.47279 17.4924 1.38665 17.1333C1.33331 16.9013 1.33331 16.64 1.33331 16.3333V13C1.33331 12.6947 1.33331 12.432 1.38798 12.2C1.4738 11.8409 1.65737 11.5125 1.91837 11.2513C2.17936 10.99 2.50757 10.8062 2.86665 10.72C3.09865 10.6667 3.35998 10.6667 3.66665 10.6667ZM3.73331 12C3.32265 12 3.23465 12.004 3.17731 12.0187C3.05754 12.0473 2.94804 12.1086 2.86096 12.1957C2.77388 12.2827 2.71262 12.3922 2.68398 12.512C2.67198 12.5667 2.66665 12.6547 2.66665 13.0667V16.2667C2.66665 16.6773 2.67065 16.7653 2.68531 16.8227C2.71395 16.9424 2.77521 17.0519 2.86229 17.139C2.94937 17.2261 3.05887 17.2874 3.17865 17.316C3.23465 17.3293 3.32265 17.3333 3.73331 17.3333H6.93331C7.34398 17.3333 7.43198 17.328 7.48931 17.3147C7.60909 17.286 7.71859 17.2248 7.80567 17.1377C7.89275 17.0506 7.954 16.9411 7.98265 16.8213C7.99598 16.7653 7.99998 16.6773 7.99998 16.2667V13.0667C7.99998 12.656 7.99598 12.568 7.98131 12.5107C7.95267 12.3909 7.89141 12.2814 7.80433 12.1943C7.71725 12.1072 7.60775 12.046 7.48798 12.0173C7.43331 12.0053 7.34531 12 6.93331 12H3.73331ZM13.0666 10.6667H13C12.6946 10.6667 12.432 10.6667 12.2 10.7213C11.8408 10.8072 11.5124 10.9907 11.2512 11.2517C10.99 11.5127 10.8061 11.8409 10.72 12.2C10.6666 12.432 10.6666 12.6933 10.6666 13V16.3333C10.6666 16.6387 10.6666 16.9013 10.7213 17.1333C10.8071 17.4925 10.9907 17.8209 11.2517 18.0821C11.5127 18.3433 11.8409 18.5272 12.2 18.6133C12.432 18.668 12.6946 18.668 13 18.668H16.3333C16.6386 18.668 16.9013 18.668 17.1333 18.6133C17.4922 18.5273 17.8203 18.3436 18.0813 18.0827C18.3423 17.8217 18.5259 17.4936 18.612 17.1347C18.6666 16.9027 18.6666 16.64 18.6666 16.3347V13C18.6666 12.6947 18.6666 12.432 18.612 12.2C18.5262 11.8409 18.3426 11.5125 18.0816 11.2513C17.8206 10.99 17.4924 10.8062 17.1333 10.72C16.9013 10.6667 16.64 10.6667 16.3333 10.6667H13.0666ZM12.5106 12.0187C12.568 12.0053 12.6573 12 13.0666 12H16.2666C16.6773 12 16.7653 12.004 16.8226 12.0187C16.9424 12.0473 17.0519 12.1086 17.139 12.1957C17.2261 12.2827 17.2873 12.3922 17.316 12.512C17.3293 12.568 17.3333 12.656 17.3333 13.0667V16.2667C17.3333 16.6773 17.328 16.7653 17.3146 16.8227C17.286 16.9424 17.2247 17.0519 17.1377 17.139C17.0506 17.2261 16.9411 17.2874 16.8213 17.316C16.7653 17.3293 16.6773 17.3333 16.2666 17.3333H13.0666C12.656 17.3333 12.568 17.328 12.5106 17.3147C12.3909 17.286 12.2814 17.2248 12.1943 17.1377C12.1072 17.0506 12.046 16.9411 12.0173 16.8213C12.0053 16.7667 12 16.6787 12 16.2667V13.0667C12 12.656 12.004 12.568 12.0186 12.5107C12.0473 12.3909 12.1085 12.2814 12.1956 12.1943C12.2827 12.1072 12.3922 12.046 12.512 12.0173L12.5106 12.0187Z" fill="#FF9000"/>
</svg>
