<svg width="24" height="24" viewBox="0 0 24 24" fill="none" xmlns="http://www.w3.org/2000/svg">
<path d="M12 7.12501C11.0358 7.12501 10.0933 7.41093 9.2916 7.9466C8.48991 8.48227 7.86507 9.24364 7.49609 10.1344C7.12711 11.0252 7.03057 12.0054 7.21867 12.9511C7.40678 13.8967 7.87107 14.7654 8.55286 15.4472C9.23464 16.1289 10.1033 16.5932 11.0489 16.7813C11.9946 16.9694 12.9748 16.8729 13.8656 16.5039C14.7564 16.1349 15.5177 15.5101 16.0534 14.7084C16.5891 13.9067 16.875 12.9642 16.875 12C16.8735 10.7075 16.3594 9.46843 15.4455 8.55451C14.5316 7.64059 13.2925 7.1265 12 7.12501ZM12 14.625C11.4808 14.625 10.9733 14.4711 10.5416 14.1826C10.11 13.8942 9.7735 13.4842 9.57482 13.0046C9.37614 12.5249 9.32415 11.9971 9.42544 11.4879C9.52673 10.9787 9.77673 10.511 10.1438 10.1439C10.511 9.77674 10.9787 9.52674 11.4879 9.42545C11.9971 9.32416 12.5249 9.37615 13.0045 9.57483C13.4842 9.77351 13.8942 10.11 14.1826 10.5416C14.471 10.9733 14.625 11.4808 14.625 12C14.625 12.6962 14.3484 13.3639 13.8562 13.8562C13.3639 14.3485 12.6962 14.625 12 14.625ZM20.625 12.0741V11.9259L21.9375 10.2844C22.0477 10.1468 22.124 9.98533 22.1603 9.81289C22.1966 9.64044 22.1919 9.46187 22.1466 9.29157C21.9097 8.39824 21.5557 7.54016 21.0938 6.7397C21.0048 6.58706 20.8811 6.45752 20.7327 6.36159C20.5843 6.26565 20.4154 6.20602 20.2397 6.18751L18.1509 5.95314L18.0469 5.84907L17.8125 3.75939C17.7939 3.58383 17.7342 3.41513 17.6382 3.26692C17.5423 3.11872 17.4128 2.99516 17.2603 2.90626C16.4598 2.44285 15.6014 2.08757 14.7075 1.8497C14.5371 1.80502 14.3585 1.801 14.1862 1.83796C14.0139 1.87492 13.8527 1.95184 13.7156 2.06251L12.0741 3.37501H11.9259L10.2844 2.06251C10.1468 1.95234 9.98532 1.87602 9.81288 1.83971C9.64043 1.80339 9.46186 1.8081 9.29156 1.85345C8.39799 2.09177 7.53991 2.44736 6.73969 2.91095C6.58764 2.99948 6.45848 3.12245 6.36257 3.26996C6.26667 3.41748 6.20671 3.58543 6.1875 3.76032L5.95313 5.84907L5.84906 5.95314L3.75938 6.18751C3.58382 6.20616 3.41512 6.26586 3.26691 6.36179C3.1187 6.45771 2.99515 6.58717 2.90625 6.7397C2.44414 7.54042 2.09012 8.39882 1.85344 9.29251C1.80824 9.46267 1.80362 9.64106 1.83993 9.81333C1.87624 9.9856 1.95247 10.1469 2.0625 10.2844L3.375 11.9259V12.0741L2.0625 13.7156C1.95233 13.8532 1.87601 14.0147 1.83969 14.1871C1.80338 14.3596 1.80809 14.5382 1.85344 14.7084C2.09206 15.6021 2.44796 16.4602 2.91188 17.2603C3.00032 17.4123 3.12314 17.5413 3.27048 17.6372C3.41782 17.7331 3.58558 17.7932 3.76031 17.8125L5.84906 18.045L5.95313 18.1491L6.1875 20.2406C6.20615 20.4162 6.26585 20.5849 6.36178 20.7331C6.4577 20.8813 6.58716 21.0049 6.73969 21.0938C7.54021 21.5572 8.39862 21.9125 9.2925 22.1503C9.46295 22.195 9.6415 22.199 9.81379 22.1621C9.98607 22.1251 10.1473 22.0482 10.2844 21.9375L11.9259 20.625H12.0741L13.7156 21.9375C13.8532 22.0477 14.0147 22.124 14.1871 22.1603C14.3596 22.1966 14.5381 22.1919 14.7084 22.1466C15.6018 21.9097 16.4598 21.5557 17.2603 21.0938C17.4127 21.0054 17.5422 20.8826 17.6385 20.735C17.7347 20.5875 17.795 20.4195 17.8144 20.2444L18.0469 18.1556L18.1509 18.0516L20.2406 17.8125C20.4157 17.7931 20.5838 17.7328 20.7313 17.6366C20.8788 17.5404 21.0017 17.4108 21.09 17.2584C21.5534 16.4579 21.9087 15.5995 22.1466 14.7056C22.1914 14.5358 22.1959 14.3577 22.1596 14.1858C22.1233 14.0139 22.0472 13.8529 21.9375 13.7156L20.625 12.0741ZM18.3638 11.6156C18.3788 11.8717 18.3788 12.1284 18.3638 12.3844C18.347 12.6627 18.4342 12.9373 18.6084 13.155L19.8122 14.6597C19.6986 14.996 19.563 15.3246 19.4062 15.6431L17.4909 15.8559C17.2136 15.8877 16.958 16.0213 16.7738 16.2309C16.6034 16.4228 16.4219 16.6044 16.23 16.7747C16.0204 16.959 15.8867 17.2146 15.855 17.4919L15.6431 19.4063C15.3246 19.5636 14.9961 19.6998 14.6597 19.8141L13.155 18.6094C12.9553 18.4501 12.7073 18.3634 12.4519 18.3638C12.4294 18.3638 12.4069 18.3638 12.3844 18.3638C12.1283 18.3788 11.8717 18.3788 11.6156 18.3638C11.3375 18.3473 11.0631 18.4341 10.845 18.6075L9.34031 19.8122C9.00397 19.6986 8.67545 19.563 8.35688 19.4063L8.14406 17.4909C8.11236 17.2136 7.9787 16.958 7.76906 16.7738C7.57719 16.6035 7.39562 16.4219 7.22531 16.23C7.04105 16.0204 6.78543 15.8867 6.50813 15.855L4.59375 15.6431C4.43641 15.3246 4.30018 14.9961 4.18594 14.6597L5.38969 13.155C5.56393 12.9373 5.65113 12.6627 5.63438 12.3844C5.61937 12.1284 5.61937 11.8717 5.63438 11.6156C5.65113 11.3373 5.56393 11.0627 5.38969 10.845L4.18781 9.34032C4.30145 9.00398 4.43705 8.67546 4.59375 8.35689L6.50906 8.14407C6.78637 8.11237 7.04198 7.97871 7.22625 7.76907C7.39656 7.5772 7.57813 7.39563 7.77 7.22532C7.97964 7.04106 8.1133 6.78544 8.145 6.50814L8.35688 4.59376C8.6754 4.43642 9.00392 4.30019 9.34031 4.18595L10.845 5.39064C11.0631 5.56406 11.3375 5.65087 11.6156 5.63439C11.8717 5.61939 12.1283 5.61939 12.3844 5.63439C12.6626 5.6514 12.9372 5.56454 13.155 5.39064L14.6597 4.18595C14.9961 4.30019 15.3246 4.43642 15.6431 4.59376L15.8559 6.50907C15.8876 6.78638 16.0213 7.042 16.2309 7.22626C16.4228 7.39657 16.6044 7.57814 16.7747 7.77001C16.959 7.97965 17.2146 8.11331 17.4919 8.14501L19.4062 8.35689C19.5636 8.67541 19.6998 9.00393 19.8141 9.34032L18.6103 10.845C18.4354 11.0624 18.3475 11.3371 18.3638 11.6156Z" fill="#8B8BA7"/>
</svg>
