<svg width="24" height="24" viewBox="0 0 24 24" fill="none" xmlns="http://www.w3.org/2000/svg">
<path d="M7.82 19H15V18C15 15.79 16.79 14 19 14H19.74L17.84 5.56C17.7387 5.11809 17.4909 4.72344 17.1368 4.44022C16.7828 4.15699 16.3434 4.00185 15.89 4H12V6H15.89L17.29 12.25H17.28C16.2085 12.573 15.2485 13.1888 14.5082 14.028C13.7679 14.8672 13.2767 15.8966 13.09 17H7.82C7.57969 16.3186 7.10123 15.747 6.47276 15.3905C5.8443 15.034 5.10817 14.9166 4.4 15.06C3.22 15.29 2.27 16.26 2.05 17.44C1.96792 17.8738 1.98257 18.3204 2.09287 18.748C2.20318 19.1755 2.40644 19.5735 2.68817 19.9134C2.96989 20.2534 3.32314 20.5271 3.72275 20.7149C4.12235 20.9027 4.55846 21 5 21C6.3 21 7.4 20.16 7.82 19ZM5 19C4.45 19 4 18.55 4 18C4 17.45 4.45 17 5 17C5.55 17 6 17.45 6 18C6 18.55 5.55 19 5 19ZM19 15C17.34 15 16 16.34 16 18C16 19.66 17.34 21 19 21C20.66 21 22 19.66 22 18C22 16.34 20.66 15 19 15ZM19 19C18.45 19 18 18.55 18 18C18 17.45 18.45 17 19 17C19.55 17 20 17.45 20 18C20 18.55 19.55 19 19 19Z" fill="black"/>
</svg>
