<svg width="20" height="20" viewBox="0 0 20 20" fill="none" xmlns="http://www.w3.org/2000/svg">
<path d="M11.7802 2.80116L11.2827 2.85091V2.85091L11.7802 2.80116ZM11.7198 2.37987L12.1988 2.2365V2.2365L11.7198 2.37987ZM11.8948 3.55459L11.4304 3.74002V3.74002L11.8948 3.55459ZM13.2179 4.10265L13.4151 4.56211V4.56211L13.2179 4.10265ZM13.8316 3.6509L14.1483 4.03788L14.1591 4.02898L14.1695 4.01948L13.8316 3.6509ZM13.8316 3.65089L13.515 3.26391L13.5042 3.27282L13.4938 3.28232L13.8316 3.65089ZM14.1723 3.39575L13.9349 2.95566L13.9349 2.95567L14.1723 3.39575ZM15.2068 3.44735L15.4867 3.03306L15.4867 3.03306L15.2068 3.44735ZM15.5203 3.73513L15.1668 4.08868L15.1668 4.08868L15.5203 3.73513ZM16.2649 4.47968L16.6184 4.12613L16.6184 4.12613L16.2649 4.47968ZM16.5527 4.79323L16.1384 5.07317L16.1384 5.07317L16.5527 4.79323ZM16.6043 5.82775L16.1642 5.59042V5.59042L16.6043 5.82775ZM16.3491 6.16838L15.9621 5.85176L16.3491 6.16838ZM15.8973 6.78216L16.3568 6.97937L15.8973 6.78216ZM16.4454 8.10527L16.6308 7.64093L16.6308 7.64093L16.4454 8.10527ZM17.1989 8.21984L17.1491 8.71736L17.1989 8.21984ZM17.6202 8.28028L17.7636 7.80128L17.6202 8.28028ZM18.3152 9.04826L18.8061 8.95326V8.95325L18.3152 9.04826ZM18.3152 10.9516L17.8243 10.8566V10.8566L18.3152 10.9516ZM17.6201 11.7197L17.7634 12.1987L17.7634 12.1987L17.6201 11.7197ZM17.1989 11.7801L17.1492 11.2826H17.1492L17.1989 11.7801ZM16.4459 11.8946L16.2605 11.4302H16.2605L16.4459 11.8946ZM15.8977 13.2179L16.3571 13.0206L16.3571 13.0206L15.8977 13.2179ZM16.3492 13.8313L16.7492 13.5313L16.7429 13.5228L16.7362 13.5147L16.3492 13.8313ZM16.3492 13.8313L15.9492 14.1313L15.9556 14.1397L15.9623 14.1479L16.3492 13.8313ZM16.6042 14.1717L16.1642 14.4091L16.1642 14.4091L16.6042 14.1717ZM16.5526 15.2064L16.1384 14.9264L16.1384 14.9264L16.5526 15.2064ZM16.265 15.5198L16.6186 15.8733H16.6186L16.265 15.5198ZM15.5204 16.2644L15.1668 15.9109H15.1668L15.5204 16.2644ZM15.2068 16.5522L15.4868 16.9665L15.4868 16.9665L15.2068 16.5522ZM14.1723 16.6038L13.935 17.0439L14.1723 16.6038ZM13.8317 16.3487L14.1483 15.9617L14.1294 15.9462L14.109 15.9326L13.8317 16.3487ZM13.8317 16.3486L13.5116 16.7328L13.5321 16.7499L13.5543 16.7647L13.8317 16.3486ZM13.8317 16.3486L14.1518 15.9645L14.1483 15.9617L13.8317 16.3486ZM13.2179 15.8969L13.0207 16.3564H13.0207L13.2179 15.8969ZM11.8948 16.445L11.4304 16.2595L11.4304 16.2595L11.8948 16.445ZM11.7802 17.1986L12.2777 17.2483V17.2483L11.7802 17.1986ZM11.7197 17.6201L12.1987 17.7636L12.1987 17.7636L11.7197 17.6201ZM10.9519 18.3151L10.8568 17.8242L10.8568 17.8242L10.9519 18.3151ZM9.04839 18.3151L8.95338 18.806H8.95338L9.04839 18.3151ZM8.2804 17.6201L7.8014 17.7634V17.7634L8.2804 17.6201ZM8.21996 17.1988L8.71748 17.149L8.71585 17.1327L8.71316 17.1166L8.21996 17.1988ZM8.21996 17.1987L7.72244 17.2485L7.72407 17.2648L7.72676 17.2809L8.21996 17.1987ZM8.10539 16.4453L7.64105 16.6307L8.10539 16.4453ZM6.78229 15.8972L6.9795 16.3567L6.9795 16.3567L6.78229 15.8972ZM6.16848 16.349L5.85187 15.962L5.83257 15.9778L5.81493 15.9954L6.16848 16.349ZM6.16848 16.349L6.4851 16.736L6.5044 16.7202L6.52203 16.7026L6.16848 16.349ZM5.82782 16.6042L5.5905 16.1641L5.5905 16.1641L5.82782 16.6042ZM4.79333 16.5526L5.07326 16.1383L5.07326 16.1383L4.79333 16.5526ZM4.47976 16.2648L4.83331 15.9112L4.82292 15.9008L4.81194 15.8911L4.47976 16.2648ZM4.47975 16.2648L4.1262 16.6183L4.13659 16.6287L4.14757 16.6385L4.47975 16.2648ZM3.73522 15.5202L3.38167 15.8738L3.38167 15.8738L3.73522 15.5202ZM3.44743 15.2067L3.03313 15.4866L3.03313 15.4866L3.44743 15.2067ZM3.39583 14.1722L3.83592 14.4095L3.83592 14.4095L3.39583 14.1722ZM3.651 13.8315L4.03798 14.1482H4.03798L3.651 13.8315ZM4.10277 13.2178L3.6433 13.0205L3.6433 13.0205L4.10277 13.2178ZM3.55471 11.8946L3.36928 12.359H3.36928L3.55471 11.8946ZM2.80127 11.7801L2.71737 12.273L2.73437 12.2759L2.75152 12.2776L2.80127 11.7801ZM2.80126 11.7801L2.88516 11.2872L2.86816 11.2843L2.85101 11.2826L2.80126 11.7801ZM2.38 11.7196L2.52337 11.2406L2.52337 11.2406L2.38 11.7196ZM1.68496 10.9516L1.19407 11.0466H1.19407L1.68496 10.9516ZM1.68498 9.04819L1.1941 8.95315L1.1941 8.95315L1.68498 9.04819ZM2.37992 8.2803L2.2365 7.80131H2.2365L2.37992 8.2803ZM2.80138 8.21983L2.75163 7.72231H2.75162L2.80138 8.21983ZM3.55514 8.1052L3.74063 8.56953H3.74063L3.55514 8.1052ZM4.10313 6.78224L3.64364 6.9794L3.64364 6.9794L4.10313 6.78224ZM3.65115 6.16815L4.03813 5.85153L4.02745 5.83848L4.01592 5.82618L3.65115 6.16815ZM3.65114 6.16814L3.26417 6.48476L3.27484 6.49781L3.28638 6.51011L3.65114 6.16814ZM3.39581 5.82726L2.95569 6.06453L2.95569 6.06453L3.39581 5.82726ZM3.4474 4.79296L3.03307 4.51307L3.03307 4.51307L3.4474 4.79296ZM3.73536 4.4792L3.3818 4.12565H3.3818L3.73536 4.4792ZM4.79337 3.44696L4.51344 3.03267L4.51344 3.03267L4.79337 3.44696ZM5.82786 3.39536L6.06517 2.95527L6.06517 2.95527L5.82786 3.39536ZM6.16858 3.65059L5.85196 4.03757L5.87088 4.05306L5.89123 4.06662L6.16858 3.65059ZM6.16858 3.6506L6.4852 3.26362L6.46628 3.24814L6.44593 3.23457L6.16858 3.6506ZM6.7822 4.10227L6.58492 4.56171L6.7822 4.10227ZM8.10548 3.55415L7.64112 3.36878V3.36878L8.10548 3.55415ZM8.21997 2.80105L7.72245 2.7513V2.7513L8.21997 2.80105ZM8.28037 2.37996L8.75939 2.52329L8.28037 2.37996ZM9.04848 1.68483L9.14344 2.17573V2.17573L9.04848 1.68483ZM10.9518 1.68484L10.8568 2.17573L10.8568 2.17573L10.9518 1.68484ZM12.2777 2.75141C12.258 2.55424 12.2434 2.38569 12.1988 2.2365L11.2408 2.52325C11.2511 2.55775 11.2585 2.60883 11.2827 2.85091L12.2777 2.75141ZM12.3591 3.36916C12.356 3.36135 12.3441 3.32542 12.3285 3.21464C12.3134 3.10686 12.2989 2.9631 12.2777 2.75141L11.2827 2.85091C11.303 3.05417 11.3197 3.22163 11.3383 3.35407C11.3565 3.48352 11.3812 3.61683 11.4304 3.74002L12.3591 3.36916ZM13.0207 3.64319C12.7623 3.75408 12.4634 3.63025 12.3591 3.36916L11.4304 3.74002C11.7432 4.52329 12.6401 4.89479 13.4151 4.56211L13.0207 3.64319ZM13.515 3.26392C13.3504 3.39864 13.2385 3.49006 13.1515 3.55554C13.0622 3.62284 13.0284 3.63987 13.0207 3.64319L13.4151 4.56211C13.537 4.50979 13.6487 4.43297 13.7531 4.35433C13.86 4.27387 13.9902 4.16723 14.1483 4.03788L13.515 3.26392ZM13.4938 3.28232L13.4938 3.28232L14.1695 4.01948L14.1695 4.01947L13.4938 3.28232ZM13.9349 2.95567C13.7979 3.02958 13.6684 3.13845 13.515 3.26391L14.1483 4.03787C14.3366 3.88382 14.3779 3.85293 14.4096 3.83584L13.9349 2.95567ZM15.4867 3.03306C15.0242 2.72051 14.4263 2.69069 13.9349 2.95566L14.4096 3.83584C14.5734 3.74751 14.7727 3.75745 14.9268 3.86164L15.4867 3.03306ZM15.8739 3.38157C15.7338 3.24147 15.6158 3.12025 15.4867 3.03306L14.9268 3.86164C14.9567 3.8818 14.9947 3.91665 15.1668 4.08868L15.8739 3.38157ZM16.6184 4.12613L15.8739 3.38157L15.1668 4.08868L15.9113 4.83324L16.6184 4.12613ZM16.967 4.5133C16.8798 4.38426 16.7585 4.26624 16.6184 4.12613L15.9113 4.83324C16.0834 5.00527 16.1182 5.04333 16.1384 5.07317L16.967 4.5133ZM17.0444 6.06507C17.3093 5.57371 17.2795 4.97585 16.967 4.5133L16.1384 5.07317C16.2426 5.22735 16.2525 5.42664 16.1642 5.59042L17.0444 6.06507ZM16.7361 6.485C16.8616 6.33164 16.9704 6.20215 17.0444 6.06507L16.1642 5.59042C16.1471 5.62212 16.1162 5.66346 15.9621 5.85176L16.7361 6.485ZM16.3568 6.97937C16.3601 6.97164 16.3771 6.93787 16.4445 6.8485C16.5099 6.76155 16.6014 6.64966 16.7361 6.485L15.9621 5.85176C15.8328 6.00986 15.7261 6.14005 15.6457 6.24689C15.567 6.35132 15.4902 6.46305 15.4379 6.58494L16.3568 6.97937ZM16.6308 7.64093C16.3697 7.53667 16.2459 7.23772 16.3568 6.97937L15.4379 6.58494C15.1052 7.35997 15.4767 8.25682 16.26 8.56962L16.6308 7.64093ZM17.2486 7.72232C17.0369 7.70115 16.8931 7.68668 16.7854 7.6715C16.6746 7.6559 16.6386 7.64405 16.6308 7.64093L16.26 8.56962C16.3831 8.61881 16.5165 8.6435 16.6459 8.66173C16.7784 8.68038 16.9458 8.69703 17.1491 8.71736L17.2486 7.72232ZM17.7636 7.80128C17.6144 7.75662 17.4458 7.74204 17.2486 7.72232L17.1491 8.71736C17.3912 8.74157 17.4423 8.74895 17.4768 8.75928L17.7636 7.80128ZM18.8061 8.95325C18.7 8.40518 18.2984 7.96136 17.7636 7.80128L17.4768 8.75928C17.6551 8.81264 17.7889 8.96058 17.8243 9.14327L18.8061 8.95325ZM18.8334 9.4735C18.8334 9.27534 18.8357 9.10616 18.8061 8.95326L17.8243 9.14327C17.8311 9.17863 17.8334 9.23019 17.8334 9.4735H18.8334ZM18.8334 10.5265V9.4735H17.8334V10.5265H18.8334ZM18.8061 11.0465C18.8357 10.8937 18.8334 10.7246 18.8334 10.5265H17.8334C17.8334 10.7697 17.8312 10.8213 17.8243 10.8566L18.8061 11.0465ZM17.7634 12.1987C18.2983 12.0386 18.7001 11.5947 18.8061 11.0465L17.8243 10.8566C17.789 11.0393 17.6551 11.1873 17.4768 11.2407L17.7634 12.1987ZM17.2487 12.2776C17.4458 12.2579 17.6143 12.2433 17.7634 12.1987L17.4768 11.2407C17.4423 11.251 17.3912 11.2584 17.1492 11.2826L17.2487 12.2776ZM16.6312 12.3589C16.639 12.3558 16.6749 12.344 16.7857 12.3284C16.8934 12.3132 17.0371 12.2988 17.2487 12.2776L17.1492 11.2826C16.946 11.3029 16.7786 11.3195 16.6463 11.3381C16.5169 11.3564 16.3836 11.381 16.2605 11.4302L16.6312 12.3589ZM16.3571 13.0206C16.2462 12.7622 16.3701 12.4632 16.6312 12.3589L16.2605 11.4302C15.477 11.7429 15.1054 12.64 15.4383 13.4152L16.3571 13.0206ZM16.7362 13.5147C16.6016 13.3501 16.5102 13.2383 16.4448 13.1514C16.3775 13.0621 16.3605 13.0283 16.3571 13.0206L15.4383 13.4152C15.4906 13.537 15.5674 13.6486 15.646 13.753C15.7264 13.8598 15.833 13.9899 15.9623 14.1479L16.7362 13.5147ZM16.7492 13.5313L16.7492 13.5313L15.9492 14.1313L15.9492 14.1313L16.7492 13.5313ZM17.0443 13.9343C16.9704 13.7973 16.8616 13.6679 16.7362 13.5147L15.9623 14.1479C16.1162 14.3361 16.1471 14.3774 16.1642 14.4091L17.0443 13.9343ZM16.9669 15.4864C17.2796 15.0238 17.3094 14.4258 17.0443 13.9343L16.1642 14.4091C16.2525 14.5729 16.2426 14.7722 16.1384 14.9264L16.9669 15.4864ZM16.6186 15.8733C16.7586 15.7333 16.8797 15.6153 16.9669 15.4864L16.1384 14.9264C16.1182 14.9563 16.0834 14.9943 15.9115 15.1662L16.6186 15.8733ZM15.8739 16.618L16.6186 15.8733L15.9115 15.1662L15.1668 15.9109L15.8739 16.618ZM15.4868 16.9665C15.6158 16.8793 15.7338 16.7581 15.8739 16.618L15.1668 15.9109C14.9948 16.0829 14.9567 16.1177 14.9269 16.1379L15.4868 16.9665ZM13.935 17.0439C14.4263 17.3089 15.0242 17.279 15.4868 16.9665L14.9269 16.1379C14.7727 16.2421 14.5734 16.252 14.4096 16.1637L13.935 17.0439ZM13.5151 16.7356C13.6684 16.8611 13.7979 16.97 13.935 17.0439L14.4096 16.1637C14.3779 16.1466 14.3366 16.1157 14.1483 15.9617L13.5151 16.7356ZM13.5543 16.7647L13.5543 16.7647L14.109 15.9326L14.109 15.9326L13.5543 16.7647ZM13.5116 16.7327L13.5116 16.7328L14.1518 15.9645L14.1518 15.9645L13.5116 16.7327ZM13.0207 16.3564C13.0284 16.3597 13.0622 16.3767 13.1516 16.444C13.2385 16.5095 13.3504 16.6009 13.515 16.7356L14.1483 15.9617C13.9902 15.8323 13.86 15.7257 13.7532 15.6452C13.6488 15.5666 13.537 15.4898 13.4151 15.4374L13.0207 16.3564ZM12.3591 16.6304C12.4634 16.3693 12.7624 16.2455 13.0207 16.3564L13.4151 15.4374C12.6401 15.1048 11.7432 15.4763 11.4304 16.2595L12.3591 16.6304ZM12.2777 17.2483C12.2989 17.0366 12.3134 16.8928 12.3286 16.7849C12.3442 16.6741 12.356 16.6382 12.3591 16.6304L11.4304 16.2595C11.3813 16.3827 11.3566 16.5161 11.3383 16.6455C11.3197 16.778 11.303 16.9455 11.2827 17.1488L12.2777 17.2483ZM12.1987 17.7636C12.2434 17.6143 12.258 17.4456 12.2777 17.2483L11.2827 17.1488C11.2585 17.3911 11.2511 17.4422 11.2407 17.4767L12.1987 17.7636ZM11.0469 18.8059C11.5949 18.6998 12.0386 18.2983 12.1987 17.7636L11.2407 17.4767C11.1874 17.6549 11.0395 17.7888 10.8568 17.8242L11.0469 18.8059ZM10.5264 18.8333C10.7247 18.8333 10.8939 18.8356 11.0469 18.8059L10.8568 17.8242C10.8214 17.831 10.7699 17.8333 10.5264 17.8333V18.8333ZM9.47361 18.8333H10.5264V17.8333H9.47361V18.8333ZM8.95338 18.806C9.10629 18.8356 9.27546 18.8333 9.47361 18.8333V17.8333C9.23031 17.8333 9.17875 17.831 9.14339 17.8242L8.95338 18.806ZM7.8014 17.7634C7.96148 18.2982 8.40531 18.6999 8.95338 18.806L9.14339 17.8242C8.9607 17.7888 8.81276 17.6549 8.7594 17.4767L7.8014 17.7634ZM7.72244 17.2485C7.74216 17.4457 7.75674 17.6142 7.8014 17.7634L8.7594 17.4767C8.74907 17.4422 8.74169 17.3911 8.71748 17.149L7.72244 17.2485ZM7.72676 17.2809L7.72676 17.281L8.71316 17.1166L8.71316 17.1166L7.72676 17.2809ZM7.72676 17.2809L7.72676 17.2809L8.71316 17.1166L8.71316 17.1165L7.72676 17.2809ZM7.64105 16.6307C7.64417 16.6385 7.65602 16.6744 7.67162 16.7852C7.6868 16.893 7.70127 17.0368 7.72244 17.2485L8.71748 17.149C8.69715 16.9457 8.6805 16.7782 8.66185 16.6458C8.64362 16.5163 8.61893 16.383 8.56973 16.2598L7.64105 16.6307ZM6.9795 16.3567C7.23784 16.2458 7.53678 16.3696 7.64105 16.6307L8.56973 16.2598C8.25693 15.4766 7.3601 15.1051 6.58508 15.4378L6.9795 16.3567ZM6.4851 16.736C6.64978 16.6012 6.76167 16.5098 6.84862 16.4443C6.93799 16.377 6.97177 16.36 6.9795 16.3567L6.58508 15.4378C6.46318 15.4901 6.35144 15.5669 6.24702 15.6455C6.14017 15.726 6.00997 15.8327 5.85187 15.962L6.4851 16.736ZM6.52203 16.7026L6.52204 16.7026L5.81493 15.9954L5.81492 15.9955L6.52203 16.7026ZM6.06513 17.0443C6.20222 16.9704 6.33173 16.8615 6.4851 16.736L5.85186 15.962C5.66354 16.1161 5.6222 16.147 5.5905 16.1641L6.06513 17.0443ZM4.5134 16.9669C4.97595 17.2794 5.57378 17.3092 6.06513 17.0443L5.5905 16.1641C5.42672 16.2524 5.22744 16.2425 5.07326 16.1383L4.5134 16.9669ZM4.12621 16.6183C4.26632 16.7585 4.38435 16.8797 4.5134 16.9669L5.07326 16.1383C5.04341 16.1181 5.00536 16.0833 4.83331 15.9112L4.12621 16.6183ZM4.14757 16.6385L4.14758 16.6385L4.81194 15.8911L4.81194 15.8911L4.14757 16.6385ZM3.38167 15.8738L4.1262 16.6183L4.83331 15.9112L4.08877 15.1667L3.38167 15.8738ZM3.03313 15.4866C3.12033 15.6157 3.24155 15.7337 3.38167 15.8738L4.08877 15.1667C3.91673 14.9947 3.88188 14.9566 3.86172 14.9268L3.03313 15.4866ZM2.95574 13.9349C2.69077 14.4262 2.72059 15.0241 3.03313 15.4866L3.86172 14.9268C3.75754 14.7726 3.7476 14.5733 3.83592 14.4095L2.95574 13.9349ZM3.26402 13.5149C3.13854 13.6683 3.02966 13.7978 2.95574 13.9349L3.83592 14.4095C3.85301 14.3778 3.88391 14.3365 4.03798 14.1482L3.26402 13.5149ZM3.6433 13.0205C3.63999 13.0283 3.62296 13.062 3.55565 13.1514C3.49017 13.2384 3.39875 13.3503 3.26402 13.5149L4.03798 14.1482C4.16733 13.9901 4.27398 13.8599 4.35445 13.753C4.43309 13.6486 4.50991 13.5369 4.56223 13.415L3.6433 13.0205ZM3.36928 12.359C3.63037 12.4632 3.7542 12.7622 3.6433 13.0205L4.56223 13.415C4.8949 12.6399 4.52341 11.7431 3.74014 11.4303L3.36928 12.359ZM2.75152 12.2776C2.96322 12.2988 3.10698 12.3132 3.21476 12.3284C3.32554 12.344 3.36146 12.3559 3.36928 12.359L3.74014 11.4303C3.61696 11.3811 3.48364 11.3564 3.35419 11.3382C3.22175 11.3195 3.05428 11.3029 2.85103 11.2826L2.75152 12.2776ZM2.71736 12.273L2.71737 12.273L2.88517 11.2872L2.88516 11.2872L2.71736 12.273ZM2.23662 12.1986C2.38581 12.2433 2.55435 12.2579 2.75151 12.2776L2.85101 11.2826C2.60894 11.2584 2.55787 11.251 2.52337 11.2406L2.23662 12.1986ZM1.19407 11.0466C1.30014 11.5947 1.70181 12.0386 2.23662 12.1986L2.52337 11.2406C2.3451 11.1873 2.21121 11.0393 2.17586 10.8566L1.19407 11.0466ZM1.16675 10.5264C1.16675 10.7246 1.16448 10.8937 1.19407 11.0466L2.17586 10.8566C2.16901 10.8213 2.16675 10.7697 2.16675 10.5264H1.16675ZM1.16675 9.47358V10.5264H2.16675V9.47358H1.16675ZM1.1941 8.95315C1.16448 9.10611 1.16675 9.27535 1.16675 9.47358H2.16675C2.16675 9.23019 2.16902 9.17861 2.17586 9.14324L1.1941 8.95315ZM2.2365 7.80131C1.70179 7.96141 1.3002 8.40516 1.1941 8.95315L2.17586 9.14324C2.21123 8.96057 2.3451 8.81266 2.52333 8.75929L2.2365 7.80131ZM2.75162 7.72231C2.55438 7.74204 2.38576 7.75662 2.2365 7.80131L2.52333 8.75929C2.55785 8.74895 2.60894 8.74157 2.85113 8.71735L2.75162 7.72231ZM3.36965 7.64088C3.36183 7.64401 3.32589 7.65586 3.21506 7.67147C3.10723 7.68665 2.96342 7.70113 2.75163 7.72231L2.85113 8.71735C3.05447 8.69701 3.22201 8.68036 3.35451 8.6617C3.48402 8.64346 3.61739 8.61876 3.74063 8.56953L3.36965 7.64088ZM3.64364 6.9794C3.75448 7.23771 3.63068 7.53661 3.36965 7.64088L3.74063 8.56953C4.52372 8.25669 4.89514 7.36001 4.56261 6.58507L3.64364 6.9794ZM3.26417 6.48477C3.39897 6.64952 3.49044 6.76146 3.55595 6.84846C3.62329 6.93787 3.64032 6.97167 3.64364 6.9794L4.56261 6.58508C4.51028 6.46312 4.43343 6.35134 4.35475 6.24686C4.27425 6.13997 4.16755 6.00971 4.03813 5.85153L3.26417 6.48477ZM3.28638 6.51011L3.28638 6.51012L4.01592 5.82618L4.01591 5.82617L3.28638 6.51011ZM2.95569 6.06453C3.02965 6.20171 3.1386 6.33129 3.26417 6.48476L4.03812 5.85152C3.88395 5.66309 3.85303 5.62171 3.83593 5.58999L2.95569 6.06453ZM3.03307 4.51307C2.72066 4.97556 2.69085 5.57326 2.95569 6.06453L3.83593 5.58999C3.74765 5.42623 3.75758 5.227 3.86172 5.07284L3.03307 4.51307ZM3.3818 4.12565C3.2416 4.26585 3.12031 4.38394 3.03307 4.51307L3.86172 5.07284C3.8819 5.04298 3.91677 5.0049 4.08891 4.83275L3.3818 4.12565ZM3.38181 4.12565L3.3818 4.12565L4.08891 4.83275L4.08891 4.83275L3.38181 4.12565ZM4.12624 3.38121L3.38181 4.12565L4.08891 4.83275L4.83335 4.08832L4.12624 3.38121ZM4.51344 3.03267C4.38438 3.11986 4.26636 3.24109 4.12624 3.38121L4.83335 4.08832C5.00539 3.91627 5.04345 3.88142 5.07329 3.86125L4.51344 3.03267ZM6.06517 2.95527C5.57382 2.69032 4.97598 2.72013 4.51344 3.03267L5.07329 3.86125C5.22748 3.75708 5.42676 3.74714 5.59054 3.83546L6.06517 2.95527ZM6.4852 3.26362C6.33179 3.1381 6.20226 3.0292 6.06517 2.95527L5.59054 3.83546C5.62224 3.85255 5.6636 3.88346 5.85196 4.03757L6.4852 3.26362ZM6.44593 3.23457L6.44593 3.23457L5.89123 4.06662L5.89123 4.06662L6.44593 3.23457ZM6.97947 3.64284C6.97175 3.63952 6.93799 3.6225 6.84863 3.5552C6.7617 3.48972 6.64983 3.39832 6.4852 3.26362L5.85196 4.03758C6.01003 4.16691 6.14019 4.27353 6.247 4.35397C6.35139 4.4326 6.46308 4.50939 6.58492 4.56171L6.97947 3.64284ZM7.64112 3.36878C7.53687 3.62992 7.23785 3.75378 6.97947 3.64284L6.58492 4.56171C7.36004 4.89454 8.2571 4.52297 8.56985 3.73953L7.64112 3.36878ZM7.72245 2.7513C7.70129 2.9629 7.68683 3.10659 7.67166 3.21432C7.65607 3.32506 7.64423 3.36096 7.64112 3.36878L8.56985 3.73953C8.619 3.61639 8.64368 3.48313 8.66189 3.35374C8.68053 3.22135 8.69717 3.05397 8.71749 2.8508L7.72245 2.7513ZM7.80136 2.23662C7.75673 2.38575 7.74216 2.55422 7.72245 2.7513L8.71749 2.8508C8.74169 2.60883 8.74907 2.55778 8.75939 2.52329L7.80136 2.23662ZM8.95352 1.19393C8.40534 1.29997 7.96142 1.70171 7.80136 2.23662L8.75939 2.52329C8.81274 2.34499 8.96071 2.21107 9.14344 2.17573L8.95352 1.19393ZM9.47349 1.16663C9.27544 1.16663 9.10636 1.16436 8.95352 1.19393L9.14344 2.17573C9.17878 2.16889 9.23032 2.16663 9.47349 2.16663V1.16663ZM10.5266 1.16663H9.47349V2.16663H10.5266V1.16663ZM11.0468 1.19395C10.8939 1.16436 10.7247 1.16663 10.5266 1.16663V2.16663C10.7699 2.16663 10.8214 2.16889 10.8568 2.17573L11.0468 1.19395ZM12.1988 2.2365C12.0387 1.70169 11.5948 1.30002 11.0468 1.19395L10.8568 2.17573C11.0395 2.21109 11.1874 2.34498 11.2408 2.52325L12.1988 2.2365ZM12.8334 9.99996C12.8334 11.5648 11.5649 12.8333 10.0001 12.8333V13.8333C12.1172 13.8333 13.8334 12.1171 13.8334 9.99996H12.8334ZM10.0001 7.16663C11.5649 7.16663 12.8334 8.43515 12.8334 9.99996H13.8334C13.8334 7.88287 12.1172 6.16663 10.0001 6.16663V7.16663ZM7.16675 9.99996C7.16675 8.43515 8.43527 7.16663 10.0001 7.16663V6.16663C7.88299 6.16663 6.16675 7.88287 6.16675 9.99996H7.16675ZM10.0001 12.8333C8.43527 12.8333 7.16675 11.5648 7.16675 9.99996H6.16675C6.16675 12.1171 7.88299 13.8333 10.0001 13.8333V12.8333Z" fill="#222222"/>
</svg>
