<svg width="18" height="18" viewBox="0 0 18 18" fill="none" xmlns="http://www.w3.org/2000/svg">
<path d="M10.7801 1.8012L10.2826 1.85096V1.85096L10.7801 1.8012ZM10.7197 1.37992L11.1987 1.23654V1.23654L10.7197 1.37992ZM10.8947 2.55463L10.4304 2.74006V2.74007L10.8947 2.55463ZM12.2178 3.10269L12.0206 2.64323L12.0206 2.64323L12.2178 3.10269ZM12.8316 2.65095L13.1482 3.03793L13.1591 3.02902L13.1694 3.01952L12.8316 2.65095ZM12.8316 2.65094L12.515 2.26396L12.5041 2.27286L12.4937 2.28236L12.8316 2.65094ZM13.1722 2.3958L12.9349 1.95571L12.9349 1.95571L13.1722 2.3958ZM14.2067 2.44739L13.9268 2.86168L14.2067 2.44739ZM14.5203 2.73517L14.1667 3.08872V3.08872L14.5203 2.73517ZM15.2648 3.47973L15.6184 3.12617L15.2648 3.47973ZM15.5526 3.79328L15.1383 4.07321L15.1383 4.07321L15.5526 3.79328ZM15.6042 4.82779L15.1641 4.59047L15.1641 4.59047L15.6042 4.82779ZM15.349 5.16842L15.736 5.48504L15.736 5.48504L15.349 5.16842ZM14.8973 5.7822L14.4378 5.58499L14.4378 5.58499L14.8973 5.7822ZM15.4453 7.10532L15.6308 6.64098L15.6308 6.64098L15.4453 7.10532ZM16.1988 7.21988L16.149 7.7174L16.1988 7.21988ZM16.6201 7.28033L16.4767 7.75933L16.6201 7.28033ZM17.3151 8.04831L17.806 7.9533V7.9533L17.3151 8.04831ZM17.3151 9.95162L16.8243 9.85665V9.85665L17.3151 9.95162ZM16.62 10.7197L16.7634 11.1987L16.7634 11.1987L16.62 10.7197ZM16.1989 10.7801L16.1491 10.2826L16.1248 10.285L16.1008 10.2898L16.1989 10.7801ZM16.1989 10.7801L16.2486 11.2776L16.273 11.2752L16.2969 11.2704L16.1989 10.7801ZM15.4458 10.8946L15.2604 10.4302L15.2604 10.4302L15.4458 10.8946ZM14.8977 12.2179L14.4382 12.4152L14.4382 12.4152L14.8977 12.2179ZM15.3492 12.8313L14.9622 13.1479V13.1479L15.3492 12.8313ZM15.6042 13.1717L15.1641 13.4091V13.4091L15.6042 13.1717ZM15.5526 14.2065L15.1383 13.9265L15.1383 13.9265L15.5526 14.2065ZM14.2068 15.5522L14.4867 15.9665L14.4867 15.9665L14.2068 15.5522ZM13.1722 15.6038L12.9349 16.0439L12.9349 16.0439L13.1722 15.6038ZM12.8316 15.3487L13.1482 14.9617L13.1293 14.9462L13.109 14.9327L12.8316 15.3487ZM12.8316 15.3487L12.5115 15.7328L12.532 15.7499L12.5543 15.7647L12.8316 15.3487ZM12.8316 15.3487L13.1517 14.9646L13.1482 14.9617L12.8316 15.3487ZM12.2179 14.8969L12.0206 15.3564L12.0206 15.3564L12.2179 14.8969ZM10.8947 15.445L10.4304 15.2596L10.4304 15.2596L10.8947 15.445ZM10.7802 16.1986L11.2777 16.2484L11.2777 16.2484L10.7802 16.1986ZM10.7197 16.6202L11.1987 16.7636L11.1987 16.7636L10.7197 16.6202ZM9.9518 17.3151L9.85675 16.8242H9.85675L9.9518 17.3151ZM8.04832 17.3151L7.95332 17.806H7.95332L8.04832 17.3151ZM7.28034 16.6201L6.80134 16.7635H6.80134L7.28034 16.6201ZM7.2199 16.1988L6.72238 16.2485L7.2199 16.1988ZM7.10533 15.4453L7.56967 15.2599V15.2599L7.10533 15.4453ZM5.78223 14.8973L5.58502 14.4378L5.58502 14.4378L5.78223 14.8973ZM5.16842 15.3491L4.8518 14.9621L4.8518 14.9621L5.16842 15.3491ZM4.82776 15.6042L4.59044 15.1641H4.59044L4.82776 15.6042ZM3.79327 15.5526L4.0732 15.1383H4.07319L3.79327 15.5526ZM3.4797 15.2648L3.83325 14.9113L3.82286 14.9009L3.81188 14.8911L3.4797 15.2648ZM3.47969 15.2648L3.12614 15.6184L3.13653 15.6288L3.14751 15.6385L3.47969 15.2648ZM2.73516 14.5203L2.38161 14.8738H2.38161L2.73516 14.5203ZM2.73515 14.5203L2.3816 14.8738L2.3816 14.8738L2.73515 14.5203ZM2.44736 14.2067L2.03307 14.4867L2.03307 14.4867L2.44736 14.2067ZM2.39577 13.1722L2.83586 13.4096L2.83586 13.4095L2.39577 13.1722ZM2.65093 12.8316L3.03791 13.1482L3.03898 13.1469L2.65093 12.8316ZM2.65094 12.8316L2.26396 12.515L2.26288 12.5163L2.65094 12.8316ZM3.10271 12.2178L3.56217 12.415L3.10271 12.2178ZM2.55465 10.8947L2.36921 11.359L2.36922 11.359L2.55465 10.8947ZM1.80123 10.7801L1.70767 11.2713L1.72943 11.2754L1.75148 11.2776L1.80123 10.7801ZM1.80121 10.7801L1.89477 10.289L1.87301 10.2848L1.85097 10.2826L1.80121 10.7801ZM1.37994 10.7197L1.23656 11.1987L1.23656 11.1987L1.37994 10.7197ZM0.684904 9.95169L0.194012 10.0467L0.684904 9.95169ZM0.666687 9.52649H0.166687H0.666687ZM0.666687 8.47362H1.16669H0.666687ZM0.68492 8.04824L0.194036 7.9532H0.194036L0.68492 8.04824ZM1.37986 7.28034L1.23644 6.80135H1.23644L1.37986 7.28034ZM1.80132 7.21987L1.75156 6.72236L1.75156 6.72236L1.80132 7.21987ZM2.55508 7.10525L2.74057 7.56957H2.74057L2.55508 7.10525ZM3.10307 5.78228L2.64358 5.97945L2.64358 5.97945L3.10307 5.78228ZM2.65109 5.16819L3.03814 4.85152L3.03206 4.84437L2.65109 5.16819ZM2.65108 5.16819L2.26404 5.48486L2.27011 5.49201L2.65108 5.16819ZM2.39575 4.82731L1.95563 5.06458L2.39575 4.82731ZM2.44734 3.793L2.86166 4.07289L2.86166 4.07289L2.44734 3.793ZM2.73529 3.47925L3.08885 3.8328L3.09814 3.82351L3.10694 3.81373L2.73529 3.47925ZM2.7353 3.47925L2.38174 3.12569L2.37245 3.13499L2.36365 3.14476L2.7353 3.47925ZM3.47973 2.73481L3.83329 3.08836L3.47973 2.73481ZM3.7933 2.44701L4.07323 2.8613L4.07323 2.8613L3.7933 2.44701ZM4.8278 2.39541L5.06511 1.95532L4.8278 2.39541ZM5.16852 2.65064L4.8519 3.03762L4.8519 3.03762L5.16852 2.65064ZM5.78213 3.10232L5.97941 2.64288V2.64288L5.78213 3.10232ZM7.10542 2.5542L6.64105 2.36882V2.36882L7.10542 2.5542ZM7.21991 1.80109L6.72239 1.75134V1.75134L7.21991 1.80109ZM7.28031 1.38L7.75933 1.52334V1.52334L7.28031 1.38ZM8.04842 0.684872L8.14338 1.17577L8.14338 1.17577L8.04842 0.684872ZM9.9517 0.684889L9.8567 1.17578V1.17578L9.9517 0.684889ZM11.2777 1.75145C11.2579 1.55429 11.2434 1.38574 11.1987 1.23654L10.2407 1.52329C10.251 1.5578 10.2584 1.60887 10.2826 1.85096L11.2777 1.75145ZM11.359 2.3692C11.3559 2.36139 11.3441 2.32547 11.3285 2.21469C11.3133 2.1069 11.2988 1.96315 11.2777 1.75145L10.2826 1.85096C10.3029 2.05421 10.3196 2.22167 10.3382 2.35412C10.3565 2.48356 10.3812 2.61688 10.4304 2.74006L11.359 2.3692ZM12.0206 2.64323C11.7623 2.75413 11.4633 2.6303 11.359 2.3692L10.4304 2.74007C10.7431 3.52334 11.64 3.89484 12.415 3.56215L12.0206 2.64323ZM12.515 2.26397C12.3503 2.39869 12.2384 2.4901 12.1515 2.55559C12.0621 2.62289 12.0283 2.63991 12.0206 2.64323L12.415 3.56215C12.5369 3.50983 12.6487 3.43302 12.7531 3.35438C12.8599 3.27391 12.9901 3.16728 13.1482 3.03793L12.515 2.26397ZM12.4937 2.28236L12.4937 2.28237L13.1694 3.01952L13.1695 3.01952L12.4937 2.28236ZM12.9349 1.95571C12.7978 2.02963 12.6683 2.1385 12.515 2.26396L13.1482 3.03792C13.3365 2.88387 13.3778 2.85298 13.4095 2.83588L12.9349 1.95571ZM14.4867 2.03311C14.0241 1.72055 13.4262 1.69073 12.9349 1.95571L13.4095 2.83588C13.5733 2.74756 13.7726 2.7575 13.9268 2.86168L14.4867 2.03311ZM14.8738 2.38162C14.7337 2.24151 14.6157 2.1203 14.4867 2.03311L13.9268 2.86168C13.9566 2.88185 13.9947 2.9167 14.1667 3.08872L14.8738 2.38162ZM15.6184 3.12617L14.8738 2.38162L14.1667 3.08872L14.9113 3.83328L15.6184 3.12617ZM15.9669 3.51335C15.8797 3.3843 15.7585 3.26629 15.6184 3.12617L14.9113 3.83328C15.0833 4.00532 15.1182 4.04337 15.1383 4.07321L15.9669 3.51335ZM16.0443 5.06511C16.3093 4.57375 16.2794 3.9759 15.9669 3.51334L15.1383 4.07321C15.2425 4.2274 15.2524 4.42668 15.1641 4.59047L16.0443 5.06511ZM15.736 5.48504C15.8615 5.33169 15.9704 5.20219 16.0443 5.06511L15.1641 4.59047C15.147 4.62217 15.1161 4.66351 14.9621 4.8518L15.736 5.48504ZM15.3567 5.97942C15.3601 5.97169 15.3771 5.93791 15.4444 5.84854C15.5099 5.7616 15.6013 5.64971 15.736 5.48504L14.9621 4.8518C14.8327 5.00991 14.7261 5.1401 14.6456 5.24694C14.567 5.35136 14.4901 5.46309 14.4378 5.58499L15.3567 5.97942ZM15.6308 6.64098C15.3697 6.53671 15.2459 6.23776 15.3567 5.97942L14.4378 5.58499C14.1051 6.36001 14.4766 7.25687 15.2599 7.56966L15.6308 6.64098ZM16.2486 6.72236C16.0368 6.70119 15.8931 6.68672 15.7853 6.67154C15.6745 6.65594 15.6386 6.6441 15.6308 6.64098L15.2599 7.56966C15.3831 7.61886 15.5164 7.64355 15.6459 7.66177C15.7783 7.68042 15.9458 7.69707 16.149 7.7174L16.2486 6.72236ZM16.7635 6.80133C16.6143 6.75666 16.4457 6.74208 16.2486 6.72236L16.149 7.7174C16.3912 7.74161 16.4422 7.749 16.4767 7.75933L16.7635 6.80133ZM17.806 7.9533C17.6999 7.40523 17.2983 6.96141 16.7635 6.80132L16.4767 7.75933C16.655 7.81269 16.7889 7.96063 16.8242 8.14332L17.806 7.9533ZM17.8334 8.47354C17.8334 8.27538 17.8356 8.10621 17.806 7.9533L16.8242 8.14331C16.8311 8.17868 16.8334 8.23024 16.8334 8.47354H17.8334ZM17.8334 9.52657V8.47354H16.8334V9.52657H17.8334ZM17.806 10.0466C17.8356 9.89374 17.8334 9.72464 17.8334 9.52657H16.8334C16.8334 9.76977 16.8311 9.82131 16.8243 9.85665L17.806 10.0466ZM16.7634 11.1987C17.2983 11.0387 17.7 10.5948 17.806 10.0466L16.8243 9.85665C16.7889 10.0394 16.655 10.1873 16.4767 10.2407L16.7634 11.1987ZM16.2486 11.2776C16.4457 11.2579 16.6142 11.2434 16.7634 11.1987L16.4767 10.2407C16.4422 10.251 16.3911 10.2584 16.1491 10.2826L16.2486 11.2776ZM16.2969 11.2704L16.2969 11.2704L16.1008 10.2898L16.1008 10.2898L16.2969 11.2704ZM15.6312 11.359C15.639 11.3559 15.6749 11.344 15.7856 11.3284C15.8933 11.3133 16.037 11.2988 16.2486 11.2776L16.1491 10.2826C15.946 10.3029 15.7786 10.3196 15.6462 10.3382C15.5168 10.3564 15.3836 10.3811 15.2604 10.4302L15.6312 11.359ZM15.3571 12.0206C15.2461 11.7623 15.37 11.4632 15.6312 11.359L15.2604 10.4302C14.4769 10.743 14.1054 11.6401 14.4382 12.4152L15.3571 12.0206ZM15.7361 12.5147C15.6015 12.3501 15.5101 12.2383 15.4447 12.1514C15.3774 12.0621 15.3604 12.0284 15.3571 12.0206L14.4382 12.4152C14.4905 12.537 14.5673 12.6487 14.6459 12.7531C14.7263 12.8598 14.8329 12.9899 14.9622 13.1479L15.7361 12.5147ZM16.0442 12.9344C15.9704 12.7974 15.8615 12.668 15.7361 12.5147L14.9622 13.1479C15.1162 13.3361 15.147 13.3774 15.1641 13.4091L16.0442 12.9344ZM15.9668 14.4864C16.2795 14.0238 16.3093 13.4258 16.0442 12.9344L15.1641 13.4091C15.2525 13.5729 15.2425 13.7723 15.1383 13.9265L15.9668 14.4864ZM15.6185 14.8734C15.7585 14.7333 15.8797 14.6154 15.9668 14.4864L15.1383 13.9265C15.1182 13.9563 15.0833 13.9943 14.9114 14.1663L15.6185 14.8734ZM14.8739 15.618L15.6185 14.8734L14.9114 14.1663L14.1667 14.9109L14.8739 15.618ZM14.4867 15.9665C14.6157 15.8793 14.7337 15.7581 14.8739 15.618L14.1667 14.9109C13.9947 15.0829 13.9567 15.1178 13.9268 15.138L14.4867 15.9665ZM12.9349 16.0439C13.4263 16.3089 14.0241 16.2791 14.4867 15.9665L13.9268 15.138C13.7726 15.2421 13.5733 15.2521 13.4096 15.1638L12.9349 16.0439ZM12.515 15.7357C12.6684 15.8611 12.7978 15.97 12.9349 16.0439L13.4096 15.1638C13.3779 15.1467 13.3365 15.1158 13.1482 14.9617L12.515 15.7357ZM12.5543 15.7647L12.5543 15.7647L13.109 14.9327L13.109 14.9327L12.5543 15.7647ZM12.5115 15.7328L12.5115 15.7328L13.1517 14.9646L13.1517 14.9646L12.5115 15.7328ZM12.0206 15.3564C12.0284 15.3597 12.0621 15.3767 12.1515 15.4441C12.2385 15.5095 12.3503 15.6009 12.515 15.7357L13.1482 14.9617C12.9901 14.8324 12.8599 14.7257 12.7531 14.6453C12.6487 14.5666 12.537 14.4898 12.4151 14.4375L12.0206 15.3564ZM11.3591 15.6304C11.4633 15.3693 11.7623 15.2455 12.0206 15.3564L12.4151 14.4375C11.6401 14.1048 10.7432 14.4763 10.4304 15.2596L11.3591 15.6304ZM11.2777 16.2484C11.2989 16.0366 11.3133 15.8928 11.3285 15.785C11.3441 15.6742 11.356 15.6382 11.3591 15.6304L10.4304 15.2596C10.3812 15.3828 10.3565 15.5161 10.3383 15.6456C10.3196 15.778 10.303 15.9455 10.2826 16.1489L11.2777 16.2484ZM11.1987 16.7636C11.2434 16.6143 11.2579 16.4457 11.2777 16.2484L10.2826 16.1489C10.2584 16.3911 10.251 16.4422 10.2407 16.4768L11.1987 16.7636ZM10.0469 17.806C10.5948 17.6999 11.0386 17.2983 11.1987 16.7636L10.2407 16.4768C10.1873 16.655 10.0394 16.7889 9.85675 16.8242L10.0469 17.806ZM9.52638 17.8333C9.72462 17.8333 9.89388 17.8356 10.0469 17.806L9.85675 16.8242C9.82137 16.8311 9.76979 16.8333 9.52638 16.8333V17.8333ZM8.47355 17.8333H9.52638V16.8333H8.47355V17.8333ZM7.95332 17.806C8.10623 17.8356 8.2754 17.8333 8.47355 17.8333V16.8333C8.23025 16.8333 8.17869 16.8311 8.14333 16.8242L7.95332 17.806ZM6.80134 16.7635C6.96142 17.2983 7.40525 17.6999 7.95332 17.806L8.14333 16.8242C7.96064 16.7889 7.8127 16.655 7.75934 16.4767L6.80134 16.7635ZM6.72238 16.2485C6.7421 16.4457 6.75668 16.6143 6.80134 16.7635L7.75934 16.4767C7.74901 16.4422 7.74163 16.3911 7.71742 16.149L6.72238 16.2485ZM6.64099 15.6308C6.64411 15.6386 6.65596 15.6745 6.67156 15.7853C6.68674 15.8931 6.70121 16.0368 6.72238 16.2485L7.71742 16.149C7.69709 15.9458 7.68044 15.7783 7.66179 15.6458C7.64356 15.5164 7.61887 15.3831 7.56967 15.2599L6.64099 15.6308ZM5.97944 15.3567C6.23778 15.2458 6.53672 15.3697 6.64099 15.6308L7.56967 15.2599C7.25687 14.4766 6.36004 14.1051 5.58502 14.4378L5.97944 15.3567ZM5.48503 15.736C5.64971 15.6013 5.7616 15.5099 5.84856 15.4444C5.93793 15.3771 5.97171 15.36 5.97944 15.3567L5.58502 14.4378C5.46312 14.4901 5.35138 14.5669 5.24695 14.6456C5.1401 14.7261 5.00991 14.8327 4.8518 14.9621L5.48503 15.736ZM5.06507 16.0443C5.20216 15.9704 5.33167 15.8615 5.48503 15.736L4.8518 14.9621C4.66348 15.1161 4.62214 15.147 4.59044 15.1641L5.06507 16.0443ZM3.51334 15.9669C3.97588 16.2795 4.57372 16.3093 5.06507 16.0443L4.59044 15.1641C4.42666 15.2525 4.22738 15.2425 4.0732 15.1383L3.51334 15.9669ZM3.12615 15.6184C3.26626 15.7585 3.38429 15.8797 3.51334 15.9669L4.07319 15.1383C4.04335 15.1182 4.0053 15.0833 3.83325 14.9113L3.12615 15.6184ZM3.14751 15.6385L3.14752 15.6385L3.81188 14.8911L3.81188 14.8911L3.14751 15.6385ZM2.38161 14.8738L3.12614 15.6184L3.83325 14.9113L3.08871 14.1667L2.38161 14.8738ZM2.3816 14.8738L2.38161 14.8738L3.08871 14.1667L3.0887 14.1667L2.3816 14.8738ZM2.03307 14.4867C2.12027 14.6157 2.24149 14.7337 2.3816 14.8738L3.08871 14.1667C2.91667 13.9947 2.88182 13.9566 2.86165 13.9268L2.03307 14.4867ZM1.95568 12.9349C1.69071 13.4263 1.72053 14.0241 2.03307 14.4867L2.86166 13.9268C2.75748 13.7726 2.74754 13.5733 2.83586 13.4096L1.95568 12.9349ZM2.26395 12.515C2.13848 12.6683 2.0296 12.7978 1.95568 12.9349L2.83586 13.4095C2.85295 13.3779 2.88384 13.3365 3.0379 13.1482L2.26395 12.515ZM2.26288 12.5163L2.26287 12.5163L3.03898 13.1469L3.039 13.1469L2.26288 12.5163ZM2.64324 12.0206C2.63993 12.0283 2.6229 12.0621 2.55559 12.1515C2.49011 12.2384 2.39869 12.3503 2.26396 12.515L3.03792 13.1482C3.16727 12.9901 3.27392 12.8599 3.35439 12.7531C3.43303 12.6486 3.50985 12.5369 3.56217 12.415L2.64324 12.0206ZM2.36922 11.359C2.6303 11.4633 2.75414 11.7622 2.64324 12.0206L3.56217 12.415C3.89484 11.64 3.52335 10.7431 2.74008 10.4303L2.36922 11.359ZM1.75148 11.2776C1.96317 11.2988 2.10692 11.3133 2.2147 11.3285C2.32548 11.3441 2.3614 11.3559 2.36921 11.359L2.74008 10.4303C2.6169 10.3811 2.48358 10.3565 2.35414 10.3382C2.22169 10.3196 2.05423 10.3029 1.85098 10.2826L1.75148 11.2776ZM1.70766 11.2713L1.70767 11.2713L1.89478 10.289L1.89477 10.289L1.70766 11.2713ZM1.23656 11.1987C1.38576 11.2433 1.5543 11.2579 1.75146 11.2776L1.85097 10.2826C1.60889 10.2584 1.55781 10.251 1.52331 10.2407L1.23656 11.1987ZM0.194012 10.0467C0.300082 10.5948 0.70175 11.0386 1.23656 11.1987L1.52331 10.2407C1.34504 10.1873 1.21115 10.0394 1.1758 9.85669L0.194012 10.0467ZM0.166687 9.52649C0.166687 9.72463 0.164422 9.89379 0.194012 10.0467L1.1758 9.85669C1.16895 9.82133 1.16669 9.76977 1.16669 9.52649H0.166687ZM0.166687 8.47362L0.166687 9.52649H1.16669L1.16669 8.47362H0.166687ZM0.194036 7.9532C0.16442 8.10616 0.166687 8.2754 0.166687 8.47362H1.16669C1.16669 8.23023 1.16895 8.17866 1.1758 8.14328L0.194036 7.9532ZM1.23644 6.80135C0.701729 6.96145 0.300135 7.40521 0.194036 7.9532L1.1758 8.14328C1.21117 7.96062 1.34503 7.8127 1.52327 7.75934L1.23644 6.80135ZM1.75156 6.72236C1.55432 6.74208 1.3857 6.75666 1.23644 6.80135L1.52327 7.75934C1.55779 7.749 1.60888 7.74161 1.85107 7.71739L1.75156 6.72236ZM2.36959 6.64093C2.36177 6.64405 2.32583 6.65591 2.215 6.67151C2.10717 6.6867 1.96336 6.70118 1.75156 6.72236L1.85107 7.71739C2.05441 7.69706 2.22195 7.6804 2.35445 7.66174C2.48395 7.6435 2.61733 7.6188 2.74057 7.56957L2.36959 6.64093ZM2.64358 5.97945C2.75442 6.23776 2.63062 6.53665 2.36959 6.64093L2.74057 7.56957C3.52366 7.25673 3.89507 6.36006 3.56255 5.58512L2.64358 5.97945ZM2.26411 5.48481C2.39891 5.64956 2.49037 5.76151 2.55589 5.8485C2.62323 5.93792 2.64026 5.97171 2.64358 5.97945L3.56255 5.58512C3.51022 5.46317 3.43337 5.35138 3.35469 5.24691C3.27419 5.14001 3.16749 5.00976 3.03807 4.85158L2.26411 5.48481ZM2.27011 5.49201L2.27012 5.49202L3.03206 4.84437L3.03205 4.84436L2.27011 5.49201ZM1.95563 5.06458C2.02958 5.20175 2.13854 5.33134 2.26411 5.48481L3.03806 4.85157C2.88389 4.66313 2.85297 4.62176 2.83587 4.59004L1.95563 5.06458ZM2.03301 3.51312C1.7206 3.9756 1.69078 4.5733 1.95563 5.06458L2.83587 4.59004C2.74759 4.42628 2.75752 4.22705 2.86166 4.07289L2.03301 3.51312ZM2.38174 3.1257C2.24154 3.26589 2.12025 3.38398 2.03301 3.51312L2.86166 4.07289C2.88183 4.04302 2.91671 4.00494 3.08885 3.8328L2.38174 3.1257ZM2.36365 3.14476L2.36365 3.14477L3.10694 3.81373L3.10694 3.81373L2.36365 3.14476ZM3.12618 2.38126L2.38174 3.12569L3.08885 3.8328L3.83329 3.08836L3.12618 2.38126ZM3.51338 2.03271C3.38432 2.11991 3.2663 2.24114 3.12618 2.38126L3.83329 3.08836C4.00533 2.91632 4.04339 2.88146 4.07323 2.8613L3.51338 2.03271ZM5.06511 1.95532C4.57376 1.69036 3.97592 1.72018 3.51338 2.03271L4.07323 2.8613C4.22742 2.75712 4.4267 2.74718 4.59048 2.8355L5.06511 1.95532ZM5.48514 2.26366C5.33173 2.13815 5.2022 2.02924 5.06511 1.95532L4.59048 2.8355C4.62218 2.8526 4.66354 2.8835 4.8519 3.03762L5.48514 2.26366ZM5.97941 2.64288C5.97169 2.63957 5.93793 2.62254 5.84857 2.55524C5.76164 2.48977 5.64977 2.39836 5.48514 2.26366L4.8519 3.03762C5.00997 3.16695 5.14013 3.27357 5.24694 3.35402C5.35133 3.43264 5.46302 3.50944 5.58486 3.56176L5.97941 2.64288ZM6.64105 2.36882C6.5368 2.62997 6.23779 2.75383 5.97941 2.64288L5.58486 3.56176C6.35998 3.89459 7.25704 3.52301 7.56979 2.73957L6.64105 2.36882ZM6.72239 1.75134C6.70123 1.96295 6.68677 2.10664 6.6716 2.21437C6.65601 2.3251 6.64417 2.36101 6.64105 2.36882L7.56979 2.73957C7.61894 2.61643 7.64362 2.48317 7.66183 2.35379C7.68047 2.2214 7.69711 2.05401 7.71743 1.85084L6.72239 1.75134ZM6.8013 1.23667C6.75667 1.3858 6.7421 1.55427 6.72239 1.75134L7.71743 1.85085C7.74163 1.60887 7.74901 1.55782 7.75933 1.52334L6.8013 1.23667ZM7.95346 0.193972C7.40528 0.300013 6.96136 0.701755 6.8013 1.23667L7.75933 1.52334C7.81268 1.34503 7.96065 1.21112 8.14338 1.17577L7.95346 0.193972ZM8.47343 0.166672C8.27538 0.166672 8.10629 0.164408 7.95346 0.193972L8.14338 1.17577C8.17872 1.16894 8.23025 1.16667 8.47343 1.16667V0.166672ZM9.5265 0.166672H8.47343V1.16667H9.5265V0.166672ZM10.0467 0.193997C9.89381 0.164406 9.72464 0.166672 9.5265 0.166672V1.16667C9.76979 1.16667 9.82134 1.16894 9.8567 1.17578L10.0467 0.193997ZM11.1987 1.23654C11.0386 0.701734 10.5948 0.300068 10.0467 0.193997L9.8567 1.17578C10.0394 1.21114 10.1873 1.34503 10.2407 1.52329L11.1987 1.23654ZM11.8334 9C11.8334 10.5648 10.5648 11.8333 9.00002 11.8333V12.8333C11.1171 12.8333 12.8334 11.1171 12.8334 9H11.8334ZM9.00002 6.16667C10.5648 6.16667 11.8334 7.4352 11.8334 9H12.8334C12.8334 6.88291 11.1171 5.16667 9.00002 5.16667V6.16667ZM6.16669 9C6.16669 7.4352 7.43521 6.16667 9.00002 6.16667V5.16667C6.88293 5.16667 5.16669 6.88291 5.16669 9H6.16669ZM9.00002 11.8333C7.43521 11.8333 6.16669 10.5648 6.16669 9H5.16669C5.16669 11.1171 6.88293 12.8333 9.00002 12.8333V11.8333Z" fill="#222222"/>
</svg>
