<svg width="72" height="73" viewBox="0 0 72 73" fill="none" xmlns="http://www.w3.org/2000/svg">
<path d="M65.3494 59.8828C61.5633 53.0211 55.6512 47.6746 48.5649 44.704C52.0889 41.9748 54.6919 38.17 56.0053 33.8283C57.3187 29.4867 57.2759 24.8283 55.8829 20.5132C54.49 16.1981 51.8175 12.4449 48.244 9.78532C44.6706 7.12573 40.3773 5.69458 35.9724 5.69458C31.5675 5.69458 27.2742 7.12573 23.7008 9.78532C20.1273 12.4449 17.4548 16.1981 16.0619 20.5132C14.6689 24.8283 14.6261 29.4867 15.9395 33.8283C17.2529 38.17 19.856 41.9748 23.3799 44.704C16.2936 47.6746 10.3815 53.0211 6.59539 59.8828C6.36078 60.2724 6.20442 60.7066 6.13559 61.1598C6.06677 61.613 6.08689 62.0758 6.19475 62.5208C6.30261 62.9658 6.49602 63.3839 6.76347 63.7501C7.03093 64.1164 7.36697 64.4234 7.75162 64.6529C8.13627 64.8823 8.56167 65.0296 9.00254 65.0859C9.44342 65.1423 9.89075 65.1065 10.318 64.9807C10.7452 64.8549 11.1435 64.6418 11.4894 64.3538C11.8352 64.0659 12.1214 63.7091 12.3311 63.3047C17.3349 54.3736 26.1718 49.0469 35.9724 49.0469C45.773 49.0469 54.6099 54.3765 59.6138 63.3047C60.0681 64.059 60.7887 64.6014 61.6232 64.817C62.4577 65.0327 63.3407 64.9049 64.0856 64.4605C64.8304 64.0161 65.3788 63.29 65.6146 62.4358C65.8505 61.5815 65.7554 60.666 65.3494 59.8828ZM21.6125 27.375C21.6125 24.4423 22.4547 21.5754 24.0326 19.1369C25.6105 16.6985 27.8532 14.7979 30.4771 13.6756C33.101 12.5533 35.9883 12.2597 38.7739 12.8318C41.5594 13.4039 44.1181 14.8162 46.1264 16.8899C48.1347 18.9637 49.5023 21.6058 50.0564 24.4822C50.6105 27.3586 50.3261 30.34 49.2392 33.0495C48.1524 35.759 46.3118 38.0748 43.9503 39.7041C41.5889 41.3335 38.8125 42.2031 35.9724 42.2031C32.1653 42.1986 28.5153 40.6349 25.8233 37.8551C23.1312 35.0752 21.6169 31.3063 21.6125 27.375Z" fill="#FF8A00"/>
</svg>
